<?xml version="1.0" encoding="UTF-8" standalone="no"?>
<!DOCTYPE svg PUBLIC "-//W3C//DTD SVG 1.1//EN"
 "http://www.w3.org/Graphics/SVG/1.1/DTD/svg11.dtd">
<!-- Generated by graphviz version 2.40.1 (20161225.0304)
 -->
<!-- Title: G Pages: 1 -->
<svg width="1588pt" height="1549pt"
 viewBox="0.00 0.00 1588.00 1549.00" xmlns="http://www.w3.org/2000/svg" xmlns:xlink="http://www.w3.org/1999/xlink">
<g id="graph0" class="graph" transform="scale(1 1) rotate(0) translate(4 1545)">
<title>G</title>
<polygon fill="#ffffff" stroke="transparent" points="-4,4 -4,-1545 1584,-1545 1584,4 -4,4"/>
<!-- 140108911344720 -->
<g id="node1" class="node">
<title>140108911344720</title>
<polygon fill="none" stroke="#000000" points="520,-1494.5 520,-1540.5 1041,-1540.5 1041,-1494.5 520,-1494.5"/>
<text text-anchor="middle" x="649" y="-1513.8" font-family="Times,serif" font-size="14.00" fill="#000000">main_input: InputLayer</text>
<polyline fill="none" stroke="#000000" points="778,-1494.5 778,-1540.5 "/>
<text text-anchor="middle" x="826" y="-1525.3" font-family="Times,serif" font-size="14.00" fill="#000000">input:</text>
<polyline fill="none" stroke="#000000" points="778,-1517.5 874,-1517.5 "/>
<text text-anchor="middle" x="826" y="-1502.3" font-family="Times,serif" font-size="14.00" fill="#000000">output:</text>
<polyline fill="none" stroke="#000000" points="874,-1494.5 874,-1540.5 "/>
<text text-anchor="middle" x="957.5" y="-1525.3" font-family="Times,serif" font-size="14.00" fill="#000000">(None, 200, 2)</text>
<polyline fill="none" stroke="#000000" points="874,-1517.5 1041,-1517.5 "/>
<text text-anchor="middle" x="957.5" y="-1502.3" font-family="Times,serif" font-size="14.00" fill="#000000">(None, 200, 2)</text>
</g>
<!-- 140106361393448 -->
<g id="node2" class="node">
<title>140106361393448</title>
<polygon fill="none" stroke="#000000" points="445,-1411.5 445,-1457.5 874,-1457.5 874,-1411.5 445,-1411.5"/>
<text text-anchor="middle" x="524" y="-1430.8" font-family="Times,serif" font-size="14.00" fill="#000000">encode_0: GRU</text>
<polyline fill="none" stroke="#000000" points="603,-1411.5 603,-1457.5 "/>
<text text-anchor="middle" x="651" y="-1442.3" font-family="Times,serif" font-size="14.00" fill="#000000">input:</text>
<polyline fill="none" stroke="#000000" points="603,-1434.5 699,-1434.5 "/>
<text text-anchor="middle" x="651" y="-1419.3" font-family="Times,serif" font-size="14.00" fill="#000000">output:</text>
<polyline fill="none" stroke="#000000" points="699,-1411.5 699,-1457.5 "/>
<text text-anchor="middle" x="786.5" y="-1442.3" font-family="Times,serif" font-size="14.00" fill="#000000">(None, 200, 2)</text>
<polyline fill="none" stroke="#000000" points="699,-1434.5 874,-1434.5 "/>
<text text-anchor="middle" x="786.5" y="-1419.3" font-family="Times,serif" font-size="14.00" fill="#000000">(None, 200, 96)</text>
</g>
<!-- 140108911344720&#45;&gt;140106361393448 -->
<g id="edge1" class="edge">
<title>140108911344720&#45;&gt;140106361393448</title>
<path fill="none" stroke="#000000" d="M746.7948,-1494.3799C732.8824,-1484.8367 716.6012,-1473.6686 701.8927,-1463.5793"/>
<polygon fill="#000000" stroke="#000000" points="703.6704,-1460.5544 693.4442,-1457.784 699.7107,-1466.3269 703.6704,-1460.5544"/>
</g>
<!-- 140106363234232 -->
<g id="node14" class="node">
<title>140106363234232</title>
<polygon fill="none" stroke="#000000" points="810,-1328.5 810,-1374.5 1283,-1374.5 1283,-1328.5 810,-1328.5"/>
<text text-anchor="middle" x="915" y="-1347.8" font-family="Times,serif" font-size="14.00" fill="#000000">main_slice: Lambda</text>
<polyline fill="none" stroke="#000000" points="1020,-1328.5 1020,-1374.5 "/>
<text text-anchor="middle" x="1068" y="-1359.3" font-family="Times,serif" font-size="14.00" fill="#000000">input:</text>
<polyline fill="none" stroke="#000000" points="1020,-1351.5 1116,-1351.5 "/>
<text text-anchor="middle" x="1068" y="-1336.3" font-family="Times,serif" font-size="14.00" fill="#000000">output:</text>
<polyline fill="none" stroke="#000000" points="1116,-1328.5 1116,-1374.5 "/>
<text text-anchor="middle" x="1199.5" y="-1359.3" font-family="Times,serif" font-size="14.00" fill="#000000">(None, 200, 2)</text>
<polyline fill="none" stroke="#000000" points="1116,-1351.5 1283,-1351.5 "/>
<text text-anchor="middle" x="1199.5" y="-1336.3" font-family="Times,serif" font-size="14.00" fill="#000000">(None, 200)</text>
</g>
<!-- 140108911344720&#45;&gt;140106363234232 -->
<g id="edge13" class="edge">
<title>140108911344720&#45;&gt;140106363234232</title>
<path fill="none" stroke="#000000" d="M821.9045,-1494.2707C840.8268,-1483.4789 863.4455,-1470.3312 883.5,-1458 924.8682,-1432.5634 971.1388,-1402.1365 1003.7818,-1380.3308"/>
<polygon fill="#000000" stroke="#000000" points="1005.8294,-1383.172 1012.1932,-1374.7013 1001.936,-1377.3547 1005.8294,-1383.172"/>
</g>
<!-- 140106361376160 -->
<g id="node3" class="node">
<title>140106361376160</title>
<polygon fill="none" stroke="#000000" points="241,-1328.5 241,-1374.5 792,-1374.5 792,-1328.5 241,-1328.5"/>
<text text-anchor="middle" x="381" y="-1347.8" font-family="Times,serif" font-size="14.00" fill="#000000">drop_encode_0: Dropout</text>
<polyline fill="none" stroke="#000000" points="521,-1328.5 521,-1374.5 "/>
<text text-anchor="middle" x="569" y="-1359.3" font-family="Times,serif" font-size="14.00" fill="#000000">input:</text>
<polyline fill="none" stroke="#000000" points="521,-1351.5 617,-1351.5 "/>
<text text-anchor="middle" x="569" y="-1336.3" font-family="Times,serif" font-size="14.00" fill="#000000">output:</text>
<polyline fill="none" stroke="#000000" points="617,-1328.5 617,-1374.5 "/>
<text text-anchor="middle" x="704.5" y="-1359.3" font-family="Times,serif" font-size="14.00" fill="#000000">(None, 200, 96)</text>
<polyline fill="none" stroke="#000000" points="617,-1351.5 792,-1351.5 "/>
<text text-anchor="middle" x="704.5" y="-1336.3" font-family="Times,serif" font-size="14.00" fill="#000000">(None, 200, 96)</text>
</g>
<!-- 140106361393448&#45;&gt;140106361376160 -->
<g id="edge2" class="edge">
<title>140106361393448&#45;&gt;140106361376160</title>
<path fill="none" stroke="#000000" d="M619.6665,-1411.3799C602.9174,-1401.6583 583.2629,-1390.2505 565.6277,-1380.0147"/>
<polygon fill="#000000" stroke="#000000" points="567.0215,-1376.7769 556.6158,-1374.784 563.5076,-1382.831 567.0215,-1376.7769"/>
</g>
<!-- 140106361651272 -->
<g id="node4" class="node">
<title>140106361651272</title>
<polygon fill="none" stroke="#000000" points="302,-1245.5 302,-1291.5 731,-1291.5 731,-1245.5 302,-1245.5"/>
<text text-anchor="middle" x="381" y="-1264.8" font-family="Times,serif" font-size="14.00" fill="#000000">encode_1: GRU</text>
<polyline fill="none" stroke="#000000" points="460,-1245.5 460,-1291.5 "/>
<text text-anchor="middle" x="508" y="-1276.3" font-family="Times,serif" font-size="14.00" fill="#000000">input:</text>
<polyline fill="none" stroke="#000000" points="460,-1268.5 556,-1268.5 "/>
<text text-anchor="middle" x="508" y="-1253.3" font-family="Times,serif" font-size="14.00" fill="#000000">output:</text>
<polyline fill="none" stroke="#000000" points="556,-1245.5 556,-1291.5 "/>
<text text-anchor="middle" x="643.5" y="-1276.3" font-family="Times,serif" font-size="14.00" fill="#000000">(None, 200, 96)</text>
<polyline fill="none" stroke="#000000" points="556,-1268.5 731,-1268.5 "/>
<text text-anchor="middle" x="643.5" y="-1253.3" font-family="Times,serif" font-size="14.00" fill="#000000">(None, 96)</text>
</g>
<!-- 140106361376160&#45;&gt;140106361651272 -->
<g id="edge3" class="edge">
<title>140106361376160&#45;&gt;140106361651272</title>
<path fill="none" stroke="#000000" d="M516.5,-1328.3799C516.5,-1320.1745 516.5,-1310.7679 516.5,-1301.8786"/>
<polygon fill="#000000" stroke="#000000" points="520.0001,-1301.784 516.5,-1291.784 513.0001,-1301.784 520.0001,-1301.784"/>
</g>
<!-- 140106361963744 -->
<g id="node5" class="node">
<title>140106361963744</title>
<polygon fill="none" stroke="#000000" points="263.5,-1162.5 263.5,-1208.5 769.5,-1208.5 769.5,-1162.5 263.5,-1162.5"/>
<text text-anchor="middle" x="403.5" y="-1181.8" font-family="Times,serif" font-size="14.00" fill="#000000">drop_encode_1: Dropout</text>
<polyline fill="none" stroke="#000000" points="543.5,-1162.5 543.5,-1208.5 "/>
<text text-anchor="middle" x="591.5" y="-1193.3" font-family="Times,serif" font-size="14.00" fill="#000000">input:</text>
<polyline fill="none" stroke="#000000" points="543.5,-1185.5 639.5,-1185.5 "/>
<text text-anchor="middle" x="591.5" y="-1170.3" font-family="Times,serif" font-size="14.00" fill="#000000">output:</text>
<polyline fill="none" stroke="#000000" points="639.5,-1162.5 639.5,-1208.5 "/>
<text text-anchor="middle" x="704.5" y="-1193.3" font-family="Times,serif" font-size="14.00" fill="#000000">(None, 96)</text>
<polyline fill="none" stroke="#000000" points="639.5,-1185.5 769.5,-1185.5 "/>
<text text-anchor="middle" x="704.5" y="-1170.3" font-family="Times,serif" font-size="14.00" fill="#000000">(None, 96)</text>
</g>
<!-- 140106361651272&#45;&gt;140106361963744 -->
<g id="edge4" class="edge">
<title>140106361651272&#45;&gt;140106361963744</title>
<path fill="none" stroke="#000000" d="M516.5,-1245.3799C516.5,-1237.1745 516.5,-1227.7679 516.5,-1218.8786"/>
<polygon fill="#000000" stroke="#000000" points="520.0001,-1218.784 516.5,-1208.784 513.0001,-1218.784 520.0001,-1218.784"/>
</g>
<!-- 140106362171464 -->
<g id="node6" class="node">
<title>140106362171464</title>
<polygon fill="none" stroke="#000000" points="302,-1079.5 302,-1125.5 731,-1125.5 731,-1079.5 302,-1079.5"/>
<text text-anchor="middle" x="401.5" y="-1098.8" font-family="Times,serif" font-size="14.00" fill="#000000">encoding: Dense</text>
<polyline fill="none" stroke="#000000" points="501,-1079.5 501,-1125.5 "/>
<text text-anchor="middle" x="549" y="-1110.3" font-family="Times,serif" font-size="14.00" fill="#000000">input:</text>
<polyline fill="none" stroke="#000000" points="501,-1102.5 597,-1102.5 "/>
<text text-anchor="middle" x="549" y="-1087.3" font-family="Times,serif" font-size="14.00" fill="#000000">output:</text>
<polyline fill="none" stroke="#000000" points="597,-1079.5 597,-1125.5 "/>
<text text-anchor="middle" x="664" y="-1110.3" font-family="Times,serif" font-size="14.00" fill="#000000">(None, 96)</text>
<polyline fill="none" stroke="#000000" points="597,-1102.5 731,-1102.5 "/>
<text text-anchor="middle" x="664" y="-1087.3" font-family="Times,serif" font-size="14.00" fill="#000000">(None, 16)</text>
</g>
<!-- 140106361963744&#45;&gt;140106362171464 -->
<g id="edge5" class="edge">
<title>140106361963744&#45;&gt;140106362171464</title>
<path fill="none" stroke="#000000" d="M516.5,-1162.3799C516.5,-1154.1745 516.5,-1144.7679 516.5,-1135.8786"/>
<polygon fill="#000000" stroke="#000000" points="520.0001,-1135.784 516.5,-1125.784 513.0001,-1135.784 520.0001,-1135.784"/>
</g>
<!-- 140106362206696 -->
<g id="node8" class="node">
<title>140106362206696</title>
<polygon fill="none" stroke="#000000" points="0,-996.5 0,-1042.5 501,-1042.5 501,-996.5 0,-996.5"/>
<text text-anchor="middle" x="113" y="-1015.8" font-family="Times,serif" font-size="14.00" fill="#000000">repeat: RepeatVector</text>
<polyline fill="none" stroke="#000000" points="226,-996.5 226,-1042.5 "/>
<text text-anchor="middle" x="274" y="-1027.3" font-family="Times,serif" font-size="14.00" fill="#000000">input:</text>
<polyline fill="none" stroke="#000000" points="226,-1019.5 322,-1019.5 "/>
<text text-anchor="middle" x="274" y="-1004.3" font-family="Times,serif" font-size="14.00" fill="#000000">output:</text>
<polyline fill="none" stroke="#000000" points="322,-996.5 322,-1042.5 "/>
<text text-anchor="middle" x="411.5" y="-1027.3" font-family="Times,serif" font-size="14.00" fill="#000000">(None, 16)</text>
<polyline fill="none" stroke="#000000" points="322,-1019.5 501,-1019.5 "/>
<text text-anchor="middle" x="411.5" y="-1004.3" font-family="Times,serif" font-size="14.00" fill="#000000">(None, 200, 16)</text>
</g>
<!-- 140106362171464&#45;&gt;140106362206696 -->
<g id="edge6" class="edge">
<title>140106362171464&#45;&gt;140106362206696</title>
<path fill="none" stroke="#000000" d="M442.7574,-1079.4901C409.0279,-1068.9655 368.907,-1056.4466 334.0639,-1045.5745"/>
<polygon fill="#000000" stroke="#000000" points="334.9747,-1042.1923 324.386,-1042.5547 332.8896,-1048.8745 334.9747,-1042.1923"/>
</g>
<!-- 140106363977800 -->
<g id="node17" class="node">
<title>140106363977800</title>
<polygon fill="none" stroke="#000000" points="620.5,-415.5 620.5,-461.5 1472.5,-461.5 1472.5,-415.5 620.5,-415.5"/>
<text text-anchor="middle" x="724" y="-434.8" font-family="Times,serif" font-size="14.00" fill="#000000">concat_zs: Lambda</text>
<polyline fill="none" stroke="#000000" points="827.5,-415.5 827.5,-461.5 "/>
<text text-anchor="middle" x="875.5" y="-446.3" font-family="Times,serif" font-size="14.00" fill="#000000">input:</text>
<polyline fill="none" stroke="#000000" points="827.5,-438.5 923.5,-438.5 "/>
<text text-anchor="middle" x="875.5" y="-423.3" font-family="Times,serif" font-size="14.00" fill="#000000">output:</text>
<polyline fill="none" stroke="#000000" points="923.5,-415.5 923.5,-461.5 "/>
<text text-anchor="middle" x="1198" y="-446.3" font-family="Times,serif" font-size="14.00" fill="#000000">[(None, 200), (None, 200), (None, 16), (None, 3)]</text>
<polyline fill="none" stroke="#000000" points="923.5,-438.5 1472.5,-438.5 "/>
<text text-anchor="middle" x="1198" y="-423.3" font-family="Times,serif" font-size="14.00" fill="#000000">(None, 21)</text>
</g>
<!-- 140106362171464&#45;&gt;140106363977800 -->
<g id="edge17" class="edge">
<title>140106362171464&#45;&gt;140106363977800</title>
<path fill="none" stroke="#000000" d="M731.075,-1093.6632C847.1772,-1085.7394 976.9407,-1070.8444 1027.5,-1043 1039.2649,-1036.5207 1038.5477,-1030.3239 1046.5,-1019.5"/>
<path fill="none" stroke="#000000" d="M1046.5,-1019.5C1090.1821,-960.0439 1046.5,-927.2778 1046.5,-853.5 1046.5,-853.5 1046.5,-853.5 1046.5,-604.5 1046.5,-558.4711 1046.5,-505.2629 1046.5,-471.7496"/>
<polygon fill="#000000" stroke="#000000" points="1050.0001,-471.5948 1046.5,-461.5948 1043.0001,-471.5948 1050.0001,-471.5948"/>
</g>
<!-- 140106361393672 -->
<g id="node7" class="node">
<title>140106361393672</title>
<polygon fill="none" stroke="#000000" points="519,-996.5 519,-1042.5 1018,-1042.5 1018,-996.5 519,-996.5"/>
<text text-anchor="middle" x="637" y="-1015.8" font-family="Times,serif" font-size="14.00" fill="#000000">aux_input: InputLayer</text>
<polyline fill="none" stroke="#000000" points="755,-996.5 755,-1042.5 "/>
<text text-anchor="middle" x="803" y="-1027.3" font-family="Times,serif" font-size="14.00" fill="#000000">input:</text>
<polyline fill="none" stroke="#000000" points="755,-1019.5 851,-1019.5 "/>
<text text-anchor="middle" x="803" y="-1004.3" font-family="Times,serif" font-size="14.00" fill="#000000">output:</text>
<polyline fill="none" stroke="#000000" points="851,-996.5 851,-1042.5 "/>
<text text-anchor="middle" x="934.5" y="-1027.3" font-family="Times,serif" font-size="14.00" fill="#000000">(None, 200, 1)</text>
<polyline fill="none" stroke="#000000" points="851,-1019.5 1018,-1019.5 "/>
<text text-anchor="middle" x="934.5" y="-1004.3" font-family="Times,serif" font-size="14.00" fill="#000000">(None, 200, 1)</text>
</g>
<!-- 140106362204400 -->
<g id="node9" class="node">
<title>140106362204400</title>
<polygon fill="none" stroke="#000000" points="333,-913.5 333,-959.5 948,-959.5 948,-913.5 333,-913.5"/>
<text text-anchor="middle" x="412.5" y="-932.8" font-family="Times,serif" font-size="14.00" fill="#000000">merge_1: Merge</text>
<polyline fill="none" stroke="#000000" points="492,-913.5 492,-959.5 "/>
<text text-anchor="middle" x="540" y="-944.3" font-family="Times,serif" font-size="14.00" fill="#000000">input:</text>
<polyline fill="none" stroke="#000000" points="492,-936.5 588,-936.5 "/>
<text text-anchor="middle" x="540" y="-921.3" font-family="Times,serif" font-size="14.00" fill="#000000">output:</text>
<polyline fill="none" stroke="#000000" points="588,-913.5 588,-959.5 "/>
<text text-anchor="middle" x="768" y="-944.3" font-family="Times,serif" font-size="14.00" fill="#000000">[(None, 200, 1), (None, 200, 16)]</text>
<polyline fill="none" stroke="#000000" points="588,-936.5 948,-936.5 "/>
<text text-anchor="middle" x="768" y="-921.3" font-family="Times,serif" font-size="14.00" fill="#000000">(None, 200, 17)</text>
</g>
<!-- 140106361393672&#45;&gt;140106362204400 -->
<g id="edge7" class="edge">
<title>140106361393672&#45;&gt;140106362204400</title>
<path fill="none" stroke="#000000" d="M732.8449,-996.3799C717.9902,-986.7475 700.5824,-975.4597 684.9094,-965.2967"/>
<polygon fill="#000000" stroke="#000000" points="686.7025,-962.2881 676.4079,-959.784 682.8941,-968.1614 686.7025,-962.2881"/>
</g>
<!-- 140106362206696&#45;&gt;140106362204400 -->
<g id="edge8" class="edge">
<title>140106362206696&#45;&gt;140106362204400</title>
<path fill="none" stroke="#000000" d="M358.6188,-996.4901C409.4455,-985.6731 470.1709,-972.7495 522.2203,-961.6723"/>
<polygon fill="#000000" stroke="#000000" points="523.1185,-965.0597 532.1709,-959.5547 521.6613,-958.213 523.1185,-965.0597"/>
</g>
<!-- 140106362458008 -->
<g id="node10" class="node">
<title>140106362458008</title>
<polygon fill="none" stroke="#000000" points="428.5,-830.5 428.5,-876.5 852.5,-876.5 852.5,-830.5 428.5,-830.5"/>
<text text-anchor="middle" x="503" y="-849.8" font-family="Times,serif" font-size="14.00" fill="#000000">decode_0: GRU</text>
<polyline fill="none" stroke="#000000" points="577.5,-830.5 577.5,-876.5 "/>
<text text-anchor="middle" x="625.5" y="-861.3" font-family="Times,serif" font-size="14.00" fill="#000000">input:</text>
<polyline fill="none" stroke="#000000" points="577.5,-853.5 673.5,-853.5 "/>
<text text-anchor="middle" x="625.5" y="-838.3" font-family="Times,serif" font-size="14.00" fill="#000000">output:</text>
<polyline fill="none" stroke="#000000" points="673.5,-830.5 673.5,-876.5 "/>
<text text-anchor="middle" x="763" y="-861.3" font-family="Times,serif" font-size="14.00" fill="#000000">(None, 200, 17)</text>
<polyline fill="none" stroke="#000000" points="673.5,-853.5 852.5,-853.5 "/>
<text text-anchor="middle" x="763" y="-838.3" font-family="Times,serif" font-size="14.00" fill="#000000">(None, 200, 96)</text>
</g>
<!-- 140106362204400&#45;&gt;140106362458008 -->
<g id="edge9" class="edge">
<title>140106362204400&#45;&gt;140106362458008</title>
<path fill="none" stroke="#000000" d="M640.5,-913.3799C640.5,-905.1745 640.5,-895.7679 640.5,-886.8786"/>
<polygon fill="#000000" stroke="#000000" points="644.0001,-886.784 640.5,-876.784 637.0001,-886.784 644.0001,-886.784"/>
</g>
<!-- 140106362927704 -->
<g id="node11" class="node">
<title>140106362927704</title>
<polygon fill="none" stroke="#000000" points="369.5,-747.5 369.5,-793.5 911.5,-793.5 911.5,-747.5 369.5,-747.5"/>
<text text-anchor="middle" x="505" y="-766.8" font-family="Times,serif" font-size="14.00" fill="#000000">drop_decode_1: Dropout</text>
<polyline fill="none" stroke="#000000" points="640.5,-747.5 640.5,-793.5 "/>
<text text-anchor="middle" x="688.5" y="-778.3" font-family="Times,serif" font-size="14.00" fill="#000000">input:</text>
<polyline fill="none" stroke="#000000" points="640.5,-770.5 736.5,-770.5 "/>
<text text-anchor="middle" x="688.5" y="-755.3" font-family="Times,serif" font-size="14.00" fill="#000000">output:</text>
<polyline fill="none" stroke="#000000" points="736.5,-747.5 736.5,-793.5 "/>
<text text-anchor="middle" x="824" y="-778.3" font-family="Times,serif" font-size="14.00" fill="#000000">(None, 200, 96)</text>
<polyline fill="none" stroke="#000000" points="736.5,-770.5 911.5,-770.5 "/>
<text text-anchor="middle" x="824" y="-755.3" font-family="Times,serif" font-size="14.00" fill="#000000">(None, 200, 96)</text>
</g>
<!-- 140106362458008&#45;&gt;140106362927704 -->
<g id="edge10" class="edge">
<title>140106362458008&#45;&gt;140106362927704</title>
<path fill="none" stroke="#000000" d="M640.5,-830.3799C640.5,-822.1745 640.5,-812.7679 640.5,-803.8786"/>
<polygon fill="#000000" stroke="#000000" points="644.0001,-803.784 640.5,-793.784 637.0001,-803.784 644.0001,-803.784"/>
</g>
<!-- 140106362679480 -->
<g id="node12" class="node">
<title>140106362679480</title>
<polygon fill="none" stroke="#000000" points="430.5,-664.5 430.5,-710.5 850.5,-710.5 850.5,-664.5 430.5,-664.5"/>
<text text-anchor="middle" x="505" y="-683.8" font-family="Times,serif" font-size="14.00" fill="#000000">decode_1: GRU</text>
<polyline fill="none" stroke="#000000" points="579.5,-664.5 579.5,-710.5 "/>
<text text-anchor="middle" x="627.5" y="-695.3" font-family="Times,serif" font-size="14.00" fill="#000000">input:</text>
<polyline fill="none" stroke="#000000" points="579.5,-687.5 675.5,-687.5 "/>
<text text-anchor="middle" x="627.5" y="-672.3" font-family="Times,serif" font-size="14.00" fill="#000000">output:</text>
<polyline fill="none" stroke="#000000" points="675.5,-664.5 675.5,-710.5 "/>
<text text-anchor="middle" x="763" y="-695.3" font-family="Times,serif" font-size="14.00" fill="#000000">(None, 200, 96)</text>
<polyline fill="none" stroke="#000000" points="675.5,-687.5 850.5,-687.5 "/>
<text text-anchor="middle" x="763" y="-672.3" font-family="Times,serif" font-size="14.00" fill="#000000">(None, 200, 96)</text>
</g>
<!-- 140106362927704&#45;&gt;140106362679480 -->
<g id="edge11" class="edge">
<title>140106362927704&#45;&gt;140106362679480</title>
<path fill="none" stroke="#000000" d="M640.5,-747.3799C640.5,-739.1745 640.5,-729.7679 640.5,-720.8786"/>
<polygon fill="#000000" stroke="#000000" points="644.0001,-720.784 640.5,-710.784 637.0001,-720.784 644.0001,-720.784"/>
</g>
<!-- 140106363234960 -->
<g id="node13" class="node">
<title>140106363234960</title>
<polygon fill="none" stroke="#000000" points="262,-581.5 262,-627.5 1019,-627.5 1019,-581.5 262,-581.5"/>
<text text-anchor="middle" x="505" y="-600.8" font-family="Times,serif" font-size="14.00" fill="#000000">time_dist(dense_1): TimeDistributed(Dense)</text>
<polyline fill="none" stroke="#000000" points="748,-581.5 748,-627.5 "/>
<text text-anchor="middle" x="796" y="-612.3" font-family="Times,serif" font-size="14.00" fill="#000000">input:</text>
<polyline fill="none" stroke="#000000" points="748,-604.5 844,-604.5 "/>
<text text-anchor="middle" x="796" y="-589.3" font-family="Times,serif" font-size="14.00" fill="#000000">output:</text>
<polyline fill="none" stroke="#000000" points="844,-581.5 844,-627.5 "/>
<text text-anchor="middle" x="931.5" y="-612.3" font-family="Times,serif" font-size="14.00" fill="#000000">(None, 200, 96)</text>
<polyline fill="none" stroke="#000000" points="844,-604.5 1019,-604.5 "/>
<text text-anchor="middle" x="931.5" y="-589.3" font-family="Times,serif" font-size="14.00" fill="#000000">(None, 200, 1)</text>
</g>
<!-- 140106362679480&#45;&gt;140106363234960 -->
<g id="edge12" class="edge">
<title>140106362679480&#45;&gt;140106363234960</title>
<path fill="none" stroke="#000000" d="M640.5,-664.3799C640.5,-656.1745 640.5,-646.7679 640.5,-637.8786"/>
<polygon fill="#000000" stroke="#000000" points="644.0001,-637.784 640.5,-627.784 637.0001,-637.784 644.0001,-637.784"/>
</g>
<!-- 140106363233168 -->
<g id="node15" class="node">
<title>140106363233168</title>
<polygon fill="none" stroke="#000000" points="462.5,-498.5 462.5,-544.5 952.5,-544.5 952.5,-498.5 462.5,-498.5"/>
<text text-anchor="middle" x="576" y="-517.8" font-family="Times,serif" font-size="14.00" fill="#000000">decode_slice: Lambda</text>
<polyline fill="none" stroke="#000000" points="689.5,-498.5 689.5,-544.5 "/>
<text text-anchor="middle" x="737.5" y="-529.3" font-family="Times,serif" font-size="14.00" fill="#000000">input:</text>
<polyline fill="none" stroke="#000000" points="689.5,-521.5 785.5,-521.5 "/>
<text text-anchor="middle" x="737.5" y="-506.3" font-family="Times,serif" font-size="14.00" fill="#000000">output:</text>
<polyline fill="none" stroke="#000000" points="785.5,-498.5 785.5,-544.5 "/>
<text text-anchor="middle" x="869" y="-529.3" font-family="Times,serif" font-size="14.00" fill="#000000">(None, 200, 1)</text>
<polyline fill="none" stroke="#000000" points="785.5,-521.5 952.5,-521.5 "/>
<text text-anchor="middle" x="869" y="-506.3" font-family="Times,serif" font-size="14.00" fill="#000000">(None, 200)</text>
</g>
<!-- 140106363234960&#45;&gt;140106363233168 -->
<g id="edge14" class="edge">
<title>140106363234960&#45;&gt;140106363233168</title>
<path fill="none" stroke="#000000" d="M659.1632,-581.3799C666.3628,-572.461 674.708,-562.1229 682.4173,-552.5725"/>
<polygon fill="#000000" stroke="#000000" points="685.1467,-554.7636 688.7045,-544.784 679.6998,-550.3668 685.1467,-554.7636"/>
</g>
<!-- 140106363234232&#45;&gt;140106363977800 -->
<g id="edge15" class="edge">
<title>140106363234232&#45;&gt;140106363977800</title>
<path fill="none" stroke="#000000" d="M1037.4115,-1328.2604C1015.7851,-1268.6545 968.6483,-1108.7694 1046.5,-1019.5"/>
</g>
<!-- 140106363233168&#45;&gt;140106363977800 -->
<g id="edge16" class="edge">
<title>140106363233168&#45;&gt;140106363977800</title>
<path fill="none" stroke="#000000" d="M801.4802,-498.4901C845.2929,-487.7631 897.5674,-474.9643 942.5574,-463.9491"/>
<polygon fill="#000000" stroke="#000000" points="943.4562,-467.3325 952.337,-461.5547 941.7915,-460.5333 943.4562,-467.3325"/>
</g>
<!-- 140106361393280 -->
<g id="node16" class="node">
<title>140106361393280</title>
<polygon fill="none" stroke="#000000" points="1075,-498.5 1075,-544.5 1580,-544.5 1580,-498.5 1075,-498.5"/>
<text text-anchor="middle" x="1218.5" y="-517.8" font-family="Times,serif" font-size="14.00" fill="#000000">support_input: InputLayer</text>
<polyline fill="none" stroke="#000000" points="1362,-498.5 1362,-544.5 "/>
<text text-anchor="middle" x="1410" y="-529.3" font-family="Times,serif" font-size="14.00" fill="#000000">input:</text>
<polyline fill="none" stroke="#000000" points="1362,-521.5 1458,-521.5 "/>
<text text-anchor="middle" x="1410" y="-506.3" font-family="Times,serif" font-size="14.00" fill="#000000">output:</text>
<polyline fill="none" stroke="#000000" points="1458,-498.5 1458,-544.5 "/>
<text text-anchor="middle" x="1519" y="-529.3" font-family="Times,serif" font-size="14.00" fill="#000000">(None, 3)</text>
<polyline fill="none" stroke="#000000" points="1458,-521.5 1580,-521.5 "/>
<text text-anchor="middle" x="1519" y="-506.3" font-family="Times,serif" font-size="14.00" fill="#000000">(None, 3)</text>
</g>
<!-- 140106361393280&#45;&gt;140106363977800 -->
<g id="edge18" class="edge">
<title>140106361393280&#45;&gt;140106363977800</title>
<path fill="none" stroke="#000000" d="M1249.599,-498.4901C1213.8152,-487.9205 1171.2218,-475.3395 1134.3046,-464.4352"/>
<polygon fill="#000000" stroke="#000000" points="1135.1344,-461.0308 1124.5525,-461.5547 1133.1514,-467.7441 1135.1344,-461.0308"/>
</g>
<!-- 140106363556416 -->
<g id="node18" class="node">
<title>140106363556416</title>
<polygon fill="none" stroke="#000000" points="674.5,-332.5 674.5,-378.5 1152.5,-378.5 1152.5,-332.5 674.5,-332.5"/>
<text text-anchor="middle" x="798.5" y="-351.8" font-family="Times,serif" font-size="14.00" fill="#000000">estnet_layer_1: Dense</text>
<polyline fill="none" stroke="#000000" points="922.5,-332.5 922.5,-378.5 "/>
<text text-anchor="middle" x="970.5" y="-363.3" font-family="Times,serif" font-size="14.00" fill="#000000">input:</text>
<polyline fill="none" stroke="#000000" points="922.5,-355.5 1018.5,-355.5 "/>
<text text-anchor="middle" x="970.5" y="-340.3" font-family="Times,serif" font-size="14.00" fill="#000000">output:</text>
<polyline fill="none" stroke="#000000" points="1018.5,-332.5 1018.5,-378.5 "/>
<text text-anchor="middle" x="1085.5" y="-363.3" font-family="Times,serif" font-size="14.00" fill="#000000">(None, 21)</text>
<polyline fill="none" stroke="#000000" points="1018.5,-355.5 1152.5,-355.5 "/>
<text text-anchor="middle" x="1085.5" y="-340.3" font-family="Times,serif" font-size="14.00" fill="#000000">(None, 16)</text>
</g>
<!-- 140106363977800&#45;&gt;140106363556416 -->
<g id="edge19" class="edge">
<title>140106363977800&#45;&gt;140106363556416</title>
<path fill="none" stroke="#000000" d="M1009.4521,-415.3799C994.0171,-405.7475 975.9294,-394.4597 959.6441,-384.2967"/>
<polygon fill="#000000" stroke="#000000" points="961.1471,-381.1091 950.8105,-378.784 957.4411,-387.0476 961.1471,-381.1091"/>
</g>
<!-- 140106364204928 -->
<g id="node21" class="node">
<title>140106364204928</title>
<polygon fill="none" stroke="#000000" points="626,-83.5 626,-129.5 1155,-129.5 1155,-83.5 626,-83.5"/>
<text text-anchor="middle" x="711" y="-102.8" font-family="Times,serif" font-size="14.00" fill="#000000">sigma_i: Lambda</text>
<polyline fill="none" stroke="#000000" points="796,-83.5 796,-129.5 "/>
<text text-anchor="middle" x="844" y="-114.3" font-family="Times,serif" font-size="14.00" fill="#000000">input:</text>
<polyline fill="none" stroke="#000000" points="796,-106.5 892,-106.5 "/>
<text text-anchor="middle" x="844" y="-91.3" font-family="Times,serif" font-size="14.00" fill="#000000">output:</text>
<polyline fill="none" stroke="#000000" points="892,-83.5 892,-129.5 "/>
<text text-anchor="middle" x="1023.5" y="-114.3" font-family="Times,serif" font-size="14.00" fill="#000000">[(None, 21), (None, 8)]</text>
<polyline fill="none" stroke="#000000" points="892,-106.5 1155,-106.5 "/>
<text text-anchor="middle" x="1023.5" y="-91.3" font-family="Times,serif" font-size="14.00" fill="#000000">(None, 8, 21, 21)</text>
</g>
<!-- 140106363977800&#45;&gt;140106364204928 -->
<g id="edge22" class="edge">
<title>140106363977800&#45;&gt;140106364204928</title>
<path fill="none" stroke="#000000" d="M1117.3494,-415.3671C1134.3149,-406.5629 1150.641,-394.7218 1161.5,-379 1209.6861,-309.2355 1226.1923,-262.7554 1183.5,-189.5"/>
<path fill="none" stroke="#000000" d="M1183.5,-189.5C1164.6065,-165.0157 1101.7897,-145.5757 1039.1409,-131.6829"/>
<polygon fill="#000000" stroke="#000000" points="1039.6094,-128.2032 1029.0944,-129.5009 1038.1237,-135.0437 1039.6094,-128.2032"/>
</g>
<!-- 140106364236632 -->
<g id="node22" class="node">
<title>140106364236632</title>
<polygon fill="none" stroke="#000000" points="743.5,-.5 743.5,-46.5 1329.5,-46.5 1329.5,-.5 743.5,-.5"/>
<text text-anchor="middle" x="823.5" y="-19.8" font-family="Times,serif" font-size="14.00" fill="#000000">energy: Lambda</text>
<polyline fill="none" stroke="#000000" points="903.5,-.5 903.5,-46.5 "/>
<text text-anchor="middle" x="951.5" y="-31.3" font-family="Times,serif" font-size="14.00" fill="#000000">input:</text>
<polyline fill="none" stroke="#000000" points="903.5,-23.5 999.5,-23.5 "/>
<text text-anchor="middle" x="951.5" y="-8.3" font-family="Times,serif" font-size="14.00" fill="#000000">output:</text>
<polyline fill="none" stroke="#000000" points="999.5,-.5 999.5,-46.5 "/>
<text text-anchor="middle" x="1164.5" y="-31.3" font-family="Times,serif" font-size="14.00" fill="#000000">[(None, 21), (None, 8, 21, 21)]</text>
<polyline fill="none" stroke="#000000" points="999.5,-23.5 1329.5,-23.5 "/>
<text text-anchor="middle" x="1164.5" y="-8.3" font-family="Times,serif" font-size="14.00" fill="#000000">(None, 1)</text>
</g>
<!-- 140106363977800&#45;&gt;140106364236632 -->
<g id="edge24" class="edge">
<title>140106363977800&#45;&gt;140106364236632</title>
<path fill="none" stroke="#000000" d="M1183.5,-189.5C1154.1267,-151.4348 1193.831,-121.0979 1164.5,-83 1154.3484,-69.8142 1140.5761,-59.4371 1125.8181,-51.3065"/>
<polygon fill="#000000" stroke="#000000" points="1127.0192,-47.9886 1116.5254,-46.5293 1123.8188,-54.2141 1127.0192,-47.9886"/>
</g>
<!-- 140106363730968 -->
<g id="node19" class="node">
<title>140106363730968</title>
<polygon fill="none" stroke="#000000" points="679.5,-249.5 679.5,-295.5 1139.5,-295.5 1139.5,-249.5 679.5,-249.5"/>
<text text-anchor="middle" x="794.5" y="-268.8" font-family="Times,serif" font-size="14.00" fill="#000000">dropout_1: Dropout</text>
<polyline fill="none" stroke="#000000" points="909.5,-249.5 909.5,-295.5 "/>
<text text-anchor="middle" x="957.5" y="-280.3" font-family="Times,serif" font-size="14.00" fill="#000000">input:</text>
<polyline fill="none" stroke="#000000" points="909.5,-272.5 1005.5,-272.5 "/>
<text text-anchor="middle" x="957.5" y="-257.3" font-family="Times,serif" font-size="14.00" fill="#000000">output:</text>
<polyline fill="none" stroke="#000000" points="1005.5,-249.5 1005.5,-295.5 "/>
<text text-anchor="middle" x="1072.5" y="-280.3" font-family="Times,serif" font-size="14.00" fill="#000000">(None, 16)</text>
<polyline fill="none" stroke="#000000" points="1005.5,-272.5 1139.5,-272.5 "/>
<text text-anchor="middle" x="1072.5" y="-257.3" font-family="Times,serif" font-size="14.00" fill="#000000">(None, 16)</text>
</g>
<!-- 140106363556416&#45;&gt;140106363730968 -->
<g id="edge20" class="edge">
<title>140106363556416&#45;&gt;140106363730968</title>
<path fill="none" stroke="#000000" d="M912.3858,-332.3799C911.9903,-324.1745 911.537,-314.7679 911.1086,-305.8786"/>
<polygon fill="#000000" stroke="#000000" points="914.5995,-305.6039 910.6221,-295.784 907.6076,-305.9409 914.5995,-305.6039"/>
</g>
<!-- 140106363954960 -->
<g id="node20" class="node">
<title>140106363954960</title>
<polygon fill="none" stroke="#000000" points="708.5,-166.5 708.5,-212.5 1084.5,-212.5 1084.5,-166.5 708.5,-166.5"/>
<text text-anchor="middle" x="781.5" y="-185.8" font-family="Times,serif" font-size="14.00" fill="#000000">gamma: Dense</text>
<polyline fill="none" stroke="#000000" points="854.5,-166.5 854.5,-212.5 "/>
<text text-anchor="middle" x="902.5" y="-197.3" font-family="Times,serif" font-size="14.00" fill="#000000">input:</text>
<polyline fill="none" stroke="#000000" points="854.5,-189.5 950.5,-189.5 "/>
<text text-anchor="middle" x="902.5" y="-174.3" font-family="Times,serif" font-size="14.00" fill="#000000">output:</text>
<polyline fill="none" stroke="#000000" points="950.5,-166.5 950.5,-212.5 "/>
<text text-anchor="middle" x="1017.5" y="-197.3" font-family="Times,serif" font-size="14.00" fill="#000000">(None, 16)</text>
<polyline fill="none" stroke="#000000" points="950.5,-189.5 1084.5,-189.5 "/>
<text text-anchor="middle" x="1017.5" y="-174.3" font-family="Times,serif" font-size="14.00" fill="#000000">(None, 8)</text>
</g>
<!-- 140106363730968&#45;&gt;140106363954960 -->
<g id="edge21" class="edge">
<title>140106363730968&#45;&gt;140106363954960</title>
<path fill="none" stroke="#000000" d="M905.8788,-249.3799C904.5936,-241.1745 903.1203,-231.7679 901.728,-222.8786"/>
<polygon fill="#000000" stroke="#000000" points="905.1522,-222.1219 900.1469,-212.784 898.2365,-223.2052 905.1522,-222.1219"/>
</g>
<!-- 140106363954960&#45;&gt;140106364204928 -->
<g id="edge23" class="edge">
<title>140106363954960&#45;&gt;140106364204928</title>
<path fill="none" stroke="#000000" d="M894.8287,-166.3799C894.2355,-158.1745 893.5555,-148.7679 892.9129,-139.8786"/>
<polygon fill="#000000" stroke="#000000" points="896.3952,-139.5056 892.1832,-129.784 889.4134,-140.0104 896.3952,-139.5056"/>
</g>
<!-- 140106364204928&#45;&gt;140106364236632 -->
<g id="edge25" class="edge">
<title>140106364204928&#45;&gt;140106364236632</title>
<path fill="none" stroke="#000000" d="M931.1691,-83.3799C948.4991,-73.5279 968.8753,-61.9442 987.0651,-51.6034"/>
<polygon fill="#000000" stroke="#000000" points="988.8323,-54.6248 995.796,-46.6399 985.3728,-48.5394 988.8323,-54.6248"/>
</g>
</g>
</svg>
